HIERARCHY
ROOT Hip
{
	OFFSET 0 1.131 0.0052
	CHANNELS 6 Xposition Yposition Zposition Xrotation Yrotation Zrotation
	JOINT Abdomen
	{
		OFFSET 0 -0.047353 -0.05
		CHANNELS 3 Xrotation Zrotation Yrotation
		JOINT Chest
		{
			OFFSET 0 0.132153 0.007439
			CHANNELS 3 Xrotation Zrotation Yrotation
			JOINT Neck
			{
				OFFSET 0 0.3078 0.006161
				CHANNELS 3 Xrotation Zrotation Yrotation
				JOINT Head_comp
				{
					OFFSET 0 0.0884 0.013
					CHANNELS 3 Xrotation Yrotation Zrotation
					End Site
					{
						OFFSET -0 0.156 0.0624
					}
				}
			}
			JOINT Left_Collar
			{
				OFFSET 0.02282 0.250342 0.017193
				CHANNELS 2 Yrotation Zrotation
				JOINT Left_Shoulder
				{
					OFFSET 0.15421 0 0
					CHANNELS 3 Xrotation Yrotation Zrotation
					JOINT Left_Forearm
					{
						OFFSET 0.265212 0 0
						CHANNELS 2 Yrotation Xrotation
						JOINT Left_Hand
						{
							OFFSET 0.27571 0 0
							CHANNELS 2 Zrotation Yrotation
							JOINT L1ProxPhalanx
							{
								OFFSET 0.014142 0.001733 0.014142
								CHANNELS 3 Yrotation Zrotation Xrotation
								JOINT L1MidPhalanx
								{
									OFFSET 0.04 0 0
									CHANNELS 1 Zrotation
									JOINT L1DistPhalanx
									{
										OFFSET 0.035 0 0
										CHANNELS 1 Zrotation
										End Site
										{
											OFFSET 0.029 -0 -0
										}
									}
								}
							}
							JOINT L2ProxPhalanx
							{
								OFFSET 0.0821037 0.001578 0.0219996
								CHANNELS 2 Yrotation Zrotation
								JOINT L2MidPhalanx
								{
									OFFSET 0.04 0 0
									CHANNELS 1 Zrotation
									JOINT L2DistPhalanx
									{
										OFFSET 0.028 0 0
										CHANNELS 1 Zrotation
										End Site
										{
											OFFSET 0.02 -0 -0
										}
									}
								}
							}
							JOINT L3ProxPhalanx
							{
								OFFSET 0.083 0 0
								CHANNELS 2 Yrotation Zrotation
								JOINT L3MidPhalanx
								{
									OFFSET 0.053 0 0
									CHANNELS 1 Zrotation
									JOINT L3DistPhalanx
									{
										OFFSET 0.03 0 0
										CHANNELS 1 Zrotation
										End Site
										{
											OFFSET 0.023 -0 -0
										}
									}
								}
							}
							JOINT L4ProxPhalanx
							{
								OFFSET 0.077274 -0.000761 -0.0207055
								CHANNELS 2 Yrotation Zrotation
								JOINT L4MidPhalanx
								{
									OFFSET 0.05 0 0
									CHANNELS 1 Zrotation
									JOINT L4DistPhalanx
									{
										OFFSET 0.03 0 0
										CHANNELS 1 Zrotation
										End Site
										{
											OFFSET 0.023 -0 -0
										}
									}
								}
							}
							JOINT L5ProxPhalanx
							{
								OFFSET 0.0675499 -0.001644 -0.039
								CHANNELS 2 Yrotation Zrotation
								JOINT L5MidPhalanx
								{
									OFFSET 0.04 0 0
									CHANNELS 1 Zrotation
									JOINT L5DistPhalanx
									{
										OFFSET 0.021 0 0
										CHANNELS 1 Zrotation
										End Site
										{
											OFFSET 0.022 -0 -0
										}
									}
								}
							}
						}
					}
				}
			}
			JOINT Right_Collar
			{
				OFFSET -0.02282 0.250342 0.017193
				CHANNELS 2 Yrotation Zrotation
				JOINT Right_Shoulder
				{
					OFFSET -0.15421 0 0
					CHANNELS 3 Xrotation Yrotation Zrotation
					JOINT Right_Forearm
					{
						OFFSET -0.265212 0 0
						CHANNELS 2 Yrotation Xrotation
						JOINT Right_Hand
						{
							OFFSET -0.27571 3e-006 0
							CHANNELS 2 Zrotation Yrotation
							JOINT R1ProxPhalanx
							{
								OFFSET -0.014142 0.001733 0.014142
								CHANNELS 3 Yrotation Zrotation Xrotation
								JOINT R1MidPhalanx
								{
									OFFSET -0.04 0 0
									CHANNELS 1 Zrotation
									JOINT R1DistPhalanx
									{
										OFFSET -0.035 0 0
										CHANNELS 1 Zrotation
										End Site
										{
											OFFSET -0.029 -0 -0
										}
									}
								}
							}
							JOINT R2ProxPhalanx
							{
								OFFSET -0.0821037 0.001578 0.0219996
								CHANNELS 2 Yrotation Zrotation
								JOINT R2MidPhalanx
								{
									OFFSET -0.04 0 0
									CHANNELS 1 Zrotation
									JOINT R2DistPhalanx
									{
										OFFSET -0.028 0 0
										CHANNELS 1 Zrotation
										End Site
										{
											OFFSET -0.02 -0 -0
										}
									}
								}
							}
							JOINT R3ProxPhalanx
							{
								OFFSET -0.083 0 0
								CHANNELS 2 Yrotation Zrotation
								JOINT R3MidPhalanx
								{
									OFFSET -0.053 0 0
									CHANNELS 1 Zrotation
									JOINT R3DistPhalanx
									{
										OFFSET -0.03 0 0
										CHANNELS 1 Zrotation
										End Site
										{
											OFFSET -0.023 -0 -0
										}
									}
								}
							}
							JOINT R4ProxPhalanx
							{
								OFFSET -0.077274 -0.000761 -0.0207055
								CHANNELS 2 Yrotation Zrotation
								JOINT R4MidPhalanx
								{
									OFFSET -0.05 0 0
									CHANNELS 1 Zrotation
									JOINT R4DistPhalanx
									{
										OFFSET -0.03 0 0
										CHANNELS 1 Zrotation
										End Site
										{
											OFFSET -0.023 -0 -0
										}
									}
								}
							}
							JOINT R5ProxPhalanx
							{
								OFFSET -0.0675499 -0.001644 -0.039
								CHANNELS 2 Yrotation Zrotation
								JOINT R5MidPhalanx
								{
									OFFSET -0.04 0 0
									CHANNELS 1 Zrotation
									JOINT R5DistPhalanx
									{
										OFFSET -0.021 0 0
										CHANNELS 1 Zrotation
										End Site
										{
											OFFSET -0.022 -0 -0
										}
									}
								}
							}
						}
					}
				}
			}
		}
	}
	JOINT Left_Thigh
	{
		OFFSET 0.1118 -0.1612 -0.0442
		CHANNELS 3 Xrotation Zrotation Yrotation
		JOINT Left_Shin
		{
			OFFSET 0 -0.477856 0
			CHANNELS 1 Xrotation
			JOINT Left_Foot
			{
				OFFSET 0 -0.431952 0
				CHANNELS 2 Xrotation Zrotation
				JOINT Left_Toe
				{
					OFFSET 0 -0.0442 0.119
					CHANNELS 1 Xrotation
					End Site
					{
						OFFSET -0 -0 0.07
					}
				}
			}
		}
	}
	JOINT Right_Thigh
	{
		OFFSET -0.1118 -0.1612 -0.0442
		CHANNELS 3 Xrotation Zrotation Yrotation
		JOINT Right_Shin
		{
			OFFSET 0 -0.477856 0
			CHANNELS 1 Xrotation
			JOINT Right_Foot
			{
				OFFSET 0 -0.431952 0
				CHANNELS 2 Xrotation Zrotation
				JOINT Right_Toe
				{
					OFFSET 0 -0.0442 0.119
					CHANNELS 1 Xrotation
					End Site
					{
						OFFSET -0 -0 0.07
					}
				}
			}
		}
	}
}
MOTION
Frames: 13
Frame Time: 0.009975
-0.100326 -0.0601621 0.0523341 -7.05179e-013 7.4894e-008 -5.10918e-006 0 0 0 0 0 0 0 0 0 0 0 0 0 0 -0 0 -0 0 0 0 0 -27.5605 -21.5864 106.421 -7.48048 -7.22872 0.359187 -7.00922 -0.766388 -1.05378 4.72541 -4.46271 -1.39298 -3.41729 8.71841 0.0688695 -13.7112 -8.22532 12.9011 1.57409 -20.5968 -30.2417 0 0 -0 0 -0 0 0 0 0 37.9386 28.008 73.698 26.2405 28.4472 13.118 18.2167 29.0248 19.6359 0 22.4358 32.6146 28.1246 -8.63175 30.7051 32.2053 23.7634 -7.83088 26.7354 35.1526 30.0193 0.828416 -0.7226 -0.0104483 0.0240216 -0.852372 0.722681 0 0.839822 -0.722598 -0.0105921 2.41484e-006 -0.839757 0.722681 0 
-0.100326 -0.0601621 0.0523341 -7.05179e-013 7.4894e-008 -5.10918e-006 0 0 0 0 0 0 0 0 0 0 0 0 0 0 -0 0 -0 0 0 0 0 -27.5605 -21.5864 106.421 -7.48048 -7.22872 0.359187 -7.00922 -0.766388 -1.05378 4.72541 -4.46271 -1.39298 -3.41729 8.71841 0.0688695 -13.7112 -8.22532 12.9011 1.57409 -20.5968 -30.2417 0 0 -0 0 -0 0 0 0 0 37.9386 28.008 73.698 26.2405 28.4472 13.118 18.2167 29.0248 19.6359 0 22.4358 32.6146 28.1246 -8.63175 30.7051 32.2053 23.7634 -7.83088 26.7354 35.1526 30.0193 0.828416 -0.7226 -0.0104483 0.0240216 -0.852372 0.722681 0 0.839822 -0.722598 -0.0105921 2.41484e-006 -0.839757 0.722681 0 
-0.101405 -0.0601643 0.0532801 1.8691e-013 8.02053e-008 -5.08348e-006 0 -0 0 0 -0 0 0 -0 0 -0.710387 0.29108 -9.06792e-006 7.31218 -34.7205 13.4313 -12.086 -32.7758 -105.557 -2.07977 -6.67242 -7.7012 -27.6886 -21.6315 106.298 -7.61808 -7.29258 0.352484 -7.12417 -0.962557 -1.12351 4.70224 -4.60032 -1.58601 -3.49021 8.68326 -0.0918153 -13.8427 -8.2742 12.8672 1.44639 -20.6638 -30.1905 -7.31218 34.7205 13.4313 12.086 32.7758 105.557 -2.07977 6.67242 7.7012 27.6886 21.6315 106.298 7.61808 7.29258 -0.352484 7.12417 0.962557 1.12351 -4.70224 4.60032 1.58601 3.49021 -8.68326 0.0918153 13.8427 8.2742 -12.8672 -1.44639 20.6638 30.1905 0.888048 -0.654633 -0.0101726 0.0239015 -0.911892 0.654717 0 0.899397 -0.654631 -0.0103026 0 -0.899338 0.654717 0 
-0.10135 -0.0601621 0.0531544 1.87867e-013 8.06083e-008 -5.10903e-006 0 -0 0 0 -0 0 0 -0 0 -0.713277 0.291246 -5.80812e-011 7.34778 -34.8947 13.4432 -11.5863 -31.1717 -106.512 -2.08706 -6.7059 -7.73986 -27.5605 -21.5864 106.421 -7.48048 -7.22872 0.359187 -7.00922 -0.766388 -1.05378 4.72541 -4.46271 -1.39298 -3.41729 8.71841 0.0688695 -13.7112 -8.22532 12.9011 1.57409 -20.5968 -30.2417 -7.34778 34.8947 13.4432 11.5863 31.1717 106.512 -2.08706 6.7059 7.73986 27.5605 21.5864 106.421 7.48048 7.22872 -0.359187 7.00922 0.766388 1.05378 -4.72541 4.46271 1.39298 3.41729 -8.71841 -0.0688695 13.7112 8.22532 -12.9011 -1.57409 20.5968 30.2417 0.880071 -0.658113 -0.0101094 0.0240216 -0.904034 0.658196 0 0.891476 -0.658111 -0.0102404 0 -0.891417 0.658196 0 
-0.10135 -0.0601623 0.0531624 -7.20877e-013 7.94906e-008 -5.10904e-006 0 -0 0 0 -0 0 0 -0 0 -0.713273 0.291235 9.82288e-017 7.34778 -34.8947 13.4425 -11.5824 -31.1618 -106.515 -2.08706 -6.7059 -7.73986 -27.5605 -21.5864 106.421 -7.48048 -7.22872 0.359187 -7.00922 -0.766388 -1.05378 4.72541 -4.46271 -1.39298 -3.41729 8.71841 0.0688695 -13.7112 -8.22532 12.9011 1.57409 -20.5968 -30.2417 -7.34778 34.8947 13.4425 11.5824 31.1618 106.515 -2.08706 6.7059 7.73986 27.5605 21.5864 106.421 7.48048 7.22872 -0.359187 7.00922 0.766388 1.05378 -4.72541 4.46271 1.39298 3.41729 -8.71841 -0.0688695 13.7112 8.22532 -12.9011 -1.57409 20.5968 30.2417 0.880574 -0.658116 -0.0101152 0.0240216 -0.904537 0.658199 0 0.891979 -0.658114 -0.0102462 1.69047e-006 -0.891922 0.658199 0 
-0.10135 -0.0601623 0.0531625 4.04147e-013 7.95444e-008 -5.10904e-006 0 -0 0 0 -0 0 0 -0 0 -0.713273 0.291235 -3.88256e-019 7.34778 -34.8947 13.4425 -11.5824 -31.1618 -106.515 -2.08706 -6.7059 -7.73986 -27.5605 -21.5864 106.421 -7.48048 -7.22872 0.359187 -7.00922 -0.766388 -1.05378 4.72541 -4.46271 -1.39298 -3.41729 8.71841 0.0688695 -13.7112 -8.22532 12.9011 1.57409 -20.5968 -30.2417 -7.34778 34.8947 13.4425 11.5824 31.1618 106.515 -2.08706 6.7059 7.73986 27.5605 21.5864 106.421 7.48048 7.22872 -0.359187 7.00922 0.766388 1.05378 -4.72541 4.46271 1.39298 3.41729 -8.71841 -0.0688695 13.7112 8.22532 -12.9011 -1.57409 20.5968 30.2417 0.880584 -0.658116 -0.0101153 0.0240216 -0.904548 0.658199 0 0.89199 -0.658114 -0.0102463 1.70755e-006 -0.891933 0.658199 0 
-0.10135 -0.0601623 0.0531625 8.88735e-013 7.95448e-008 -5.10904e-006 0 -0 0 0 -0 0 0 -0 0 -0.713273 0.291235 -0 7.34778 -34.8947 13.4425 -11.5824 -31.1618 -106.515 -2.08706 -6.7059 -7.73986 -27.5605 -21.5864 106.421 -7.48048 -7.22872 0.359187 -7.00922 -0.766388 -1.05378 4.72541 -4.46271 -1.39298 -3.41729 8.71841 0.0688695 -13.7112 -8.22532 12.9011 1.57409 -20.5968 -30.2417 -7.34778 34.8947 13.4425 11.5824 31.1618 106.515 -2.08706 6.7059 7.73986 27.5605 21.5864 106.421 7.48048 7.22872 -0.359187 7.00922 0.766388 1.05378 -4.72541 4.46271 1.39298 3.41729 -8.71841 -0.0688695 13.7112 8.22532 -12.9011 -1.57409 20.5968 30.2417 0.880585 -0.658116 -0.0101153 0.0240216 -0.904548 0.658199 0 0.89199 -0.658114 -0.0102463 1.70755e-006 -0.891933 0.658199 0 
-0.10135 -0.0601623 0.0531625 -7.07606e-013 7.95448e-008 -5.10904e-006 0 -0 0 0 -0 0 0 -0 0 -0.713273 0.291235 -3.88256e-019 7.34778 -34.8947 13.4425 -11.5824 -31.1618 -106.515 -2.08706 -6.7059 -7.73986 -27.5605 -21.5864 106.421 -7.48048 -7.22872 0.359187 -7.00922 -0.766388 -1.05378 4.72541 -4.46271 -1.39298 -3.41729 8.71841 0.0688695 -13.7112 -8.22532 12.9011 1.57409 -20.5968 -30.2417 -7.34778 34.8947 13.4425 11.5824 31.1618 106.515 -2.08706 6.7059 7.73986 27.5605 21.5864 106.421 7.48048 7.22872 -0.359187 7.00922 0.766388 1.05378 -4.72541 4.46271 1.39298 3.41729 -8.71841 -0.0688695 13.7112 8.22532 -12.9011 -1.57409 20.5968 30.2417 0.880585 -0.658116 -0.0101153 0.0240216 -0.904548 0.658199 0 0.89199 -0.658114 -0.0102463 1.70755e-006 -0.891933 0.658199 0 
-0.10135 -0.0601623 0.0531625 -6.65165e-013 7.95448e-008 -5.10904e-006 0 -0 0 0 -0 0 0 -0 0 -0.713273 0.291235 -3.88256e-019 7.34778 -34.8947 13.4425 -11.5824 -31.1618 -106.515 -2.08706 -6.7059 -7.73986 -27.5605 -21.5864 106.421 -7.48048 -7.22872 0.359187 -7.00922 -0.766388 -1.05378 4.72541 -4.46271 -1.39298 -3.41729 8.71841 0.0688695 -13.7112 -8.22532 12.9011 1.57409 -20.5968 -30.2417 -7.34778 34.8947 13.4425 11.5824 31.1618 106.515 -2.08706 6.7059 7.73986 27.5605 21.5864 106.421 7.48048 7.22872 -0.359187 7.00922 0.766388 1.05378 -4.72541 4.46271 1.39298 3.41729 -8.71841 -0.0688695 13.7112 8.22532 -12.9011 -1.57409 20.5968 30.2417 0.880584 -0.658116 -0.0101153 0.0240216 -0.904548 0.658199 0 0.89199 -0.658114 -0.0102463 1.70755e-006 -0.891933 0.658199 0 
-0.10135 -0.0601623 0.0531625 -6.37981e-013 7.95448e-008 -5.10904e-006 0 -0 0 0 -0 0 0 -0 0 -0.713273 0.291235 -0 7.34778 -34.8947 13.4425 -11.5824 -31.1618 -106.515 -2.08706 -6.7059 -7.73986 -27.5605 -21.5864 106.421 -7.48048 -7.22872 0.359187 -7.00922 -0.766388 -1.05378 4.72541 -4.46271 -1.39298 -3.41729 8.71841 0.0688695 -13.7112 -8.22532 12.9011 1.57409 -20.5968 -30.2417 -7.34778 34.8947 13.4425 11.5824 31.1618 106.515 -2.08706 6.7059 7.73986 27.5605 21.5864 106.421 7.48048 7.22872 -0.359187 7.00922 0.766388 1.05378 -4.72541 4.46271 1.39298 3.41729 -8.71841 -0.0688695 13.7112 8.22532 -12.9011 -1.57409 20.5968 30.2417 0.880585 -0.658116 -0.0101153 0.0240216 -0.904548 0.658199 0 0.89199 -0.658114 -0.0102463 3.84198e-008 -0.891933 0.658199 0 
-0.10135 -0.0601623 0.0531625 -4.8442e-013 7.95448e-008 -5.10904e-006 0 -0 0 0 -0 0 0 -0 0 -0.713273 0.291235 -0 7.34778 -34.8947 13.4425 -11.5824 -31.1618 -106.515 -2.08706 -6.7059 -7.73986 -27.5605 -21.5864 106.421 -7.48048 -7.22872 0.359187 -7.00922 -0.766388 -1.05378 4.72541 -4.46271 -1.39298 -3.41729 8.71841 0.0688695 -13.7112 -8.22532 12.9011 1.57409 -20.5968 -30.2417 -7.34778 34.8947 13.4425 11.5824 31.1618 106.515 -2.08706 6.7059 7.73986 27.5605 21.5864 106.421 7.48048 7.22872 -0.359187 7.00922 0.766388 1.05378 -4.72541 4.46271 1.39298 3.41729 -8.71841 -0.0688695 13.7112 8.22532 -12.9011 -1.57409 20.5968 30.2417 0.880585 -0.658116 -0.0101153 0.0240216 -0.904548 0.658199 0 0.89199 -0.658114 -0.0102463 1.66486e-006 -0.891933 0.658199 0 
-0.10135 -0.0601623 0.0531625 6.07603e-013 7.95448e-008 -5.10904e-006 0 -0 0 0 -0 0 0 -0 0 -0.713273 0.291235 -0 7.34778 -34.8947 13.4425 -11.5824 -31.1618 -106.515 -2.08706 -6.7059 -7.73986 -27.5605 -21.5864 106.421 -7.48048 -7.22872 0.359187 -7.00922 -0.766388 -1.05378 4.72541 -4.46271 -1.39298 -3.41729 8.71841 0.0688695 -13.7112 -8.22532 12.9011 1.57409 -20.5968 -30.2417 -7.34778 34.8947 13.4425 11.5824 31.1618 106.515 -2.08706 6.7059 7.73986 27.5605 21.5864 106.421 7.48048 7.22872 -0.359187 7.00922 0.766388 1.05378 -4.72541 4.46271 1.39298 3.41729 -8.71841 -0.0688695 13.7112 8.22532 -12.9011 -1.57409 20.5968 30.2417 0.880585 -0.658116 -0.0101153 0.0240216 -0.904548 0.658199 0 0.89199 -0.658114 -0.0102463 4.69576e-008 -0.891933 0.658199 0 
-0.10135 -0.0601623 0.0531625 -4.6161e-013 7.95448e-008 -5.10904e-006 0 -0 0 0 -0 0 0 -0 0 -0.713273 0.291235 -0 7.34778 -34.8947 13.4425 -11.5824 -31.1618 -106.515 -2.08706 -6.7059 -7.73986 -27.5605 -21.5864 106.421 -7.48048 -7.22872 0.359187 -7.00922 -0.766388 -1.05378 4.72541 -4.46271 -1.39298 -3.41729 8.71841 0.0688695 -13.7112 -8.22532 12.9011 1.57409 -20.5968 -30.2417 -7.34778 34.8947 13.4425 11.5824 31.1618 106.515 -2.08706 6.7059 7.73986 27.5605 21.5864 106.421 7.48048 7.22872 -0.359187 7.00922 0.766388 1.05378 -4.72541 4.46271 1.39298 3.41729 -8.71841 -0.0688695 13.7112 8.22532 -12.9011 -1.57409 20.5968 30.2417 0.880585 -0.658116 -0.0101153 0.0240216 -0.904548 0.658199 0 0.891988 -0.658114 -0.0102463 2.7467e-006 -0.891931 0.658199 0 
